<svg width="27" height="26" viewBox="0 0 27 26" fill="none" xmlns="http://www.w3.org/2000/svg">
<g opacity="0.5" filter="url(#filter0_f_2240_79)">
<path d="M12.0116 4.55847L6.6358 6.10242C4.68586 6.66245 3.83057 8.02222 4.31041 9.79345L5.93556 15.7924C6.42327 17.5926 7.83234 18.277 9.78227 17.717L15.1581 16.173C17.1394 15.604 17.969 14.2767 17.4812 12.4764L15.8561 6.47747C15.3763 4.70625 13.993 3.98941 12.0116 4.55847Z" fill="#63EBB3"/>
</g>
<path d="M15.6105 2.49004C14.5935 1.94523 13.4075 1.85131 12.3268 2.22525L5.19834 4.19194C4.07327 4.42654 3.09174 5.11846 2.47551 6.11388C1.94637 7.16108 1.85515 8.38226 2.22037 9.50277L4.13043 16.8425C4.35827 18.0009 5.03027 19.0115 5.99705 19.646C7.01411 20.1908 8.20013 20.2847 9.2884 19.9087L16.4169 17.942C17.5343 17.7095 18.5235 17.0155 19.1397 16.02C19.6612 14.975 19.7601 13.7517 19.3949 12.6312L17.4848 5.29145C17.2493 4.13514 16.5773 3.12453 15.6105 2.49004Z" fill="url(#paint0_linear_2240_79)"/>
<g filter="url(#filter1_b_2240_79)">
<mask id="path-3-outside-1_2240_79" maskUnits="userSpaceOnUse" x="5.80542" y="5.29565" width="19" height="20" fill="black">
<rect fill="white" x="5.80542" y="5.29565" width="19" height="20"/>
<path d="M22.789 7.53398C21.87 6.66737 20.6504 6.22522 19.4137 6.3048H11.392C10.1467 6.22522 8.92708 6.66737 8.00811 7.53398C7.16644 8.48019 6.73701 9.7359 6.81431 11.0181V19.2775C6.73701 20.5598 7.16644 21.8155 8.00811 22.7617C8.92708 23.6283 10.1467 24.0704 11.392 23.9908H19.4137C20.6504 24.0704 21.8786 23.6283 22.7976 22.7617C23.6306 21.8155 24.0687 20.5598 23.9914 19.2775V11.0181C24.0601 9.7359 23.6306 8.48019 22.789 7.53398Z"/>
</mask>
<path d="M22.789 7.53398C21.87 6.66737 20.6504 6.22522 19.4137 6.3048H11.392C10.1467 6.22522 8.92708 6.66737 8.00811 7.53398C7.16644 8.48019 6.73701 9.7359 6.81431 11.0181V19.2775C6.73701 20.5598 7.16644 21.8155 8.00811 22.7617C8.92708 23.6283 10.1467 24.0704 11.392 23.9908H19.4137C20.6504 24.0704 21.8786 23.6283 22.7976 22.7617C23.6306 21.8155 24.0687 20.5598 23.9914 19.2775V11.0181C24.0601 9.7359 23.6306 8.48019 22.789 7.53398Z" fill="#57FFBA" fill-opacity="0.35"/>
<path d="M22.4459 7.89775C22.6468 8.0872 22.9633 8.07792 23.1527 7.87702C23.3422 7.67612 23.3329 7.35967 23.132 7.17022L22.4459 7.89775ZM19.4137 6.3048V6.8048C19.4244 6.8048 19.4351 6.80446 19.4458 6.80377L19.4137 6.3048ZM11.392 6.3048L11.3601 6.80379C11.3707 6.80446 11.3814 6.8048 11.392 6.8048V6.3048ZM8.00811 7.53398L7.66507 7.17022C7.65443 7.18025 7.64424 7.19074 7.63453 7.20167L8.00811 7.53398ZM6.81431 11.0181H7.31431C7.31431 11.0081 7.314 10.9981 7.3134 10.988L6.81431 11.0181ZM6.81431 19.2775L7.3134 19.3076C7.314 19.2976 7.31431 19.2876 7.31431 19.2775H6.81431ZM8.00811 22.7617L7.63453 23.094C7.64424 23.1049 7.65443 23.1154 7.66507 23.1254L8.00811 22.7617ZM11.392 23.9908V23.4908C11.3814 23.4908 11.3707 23.4912 11.3601 23.4919L11.392 23.9908ZM19.4137 23.9908L19.4458 23.4919C19.4351 23.4912 19.4244 23.4908 19.4137 23.4908V23.9908ZM22.7976 22.7617L23.1406 23.1254C23.1519 23.1148 23.1626 23.1037 23.1728 23.0921L22.7976 22.7617ZM23.9914 19.2775H23.4914C23.4914 19.2876 23.4917 19.2976 23.4923 19.3076L23.9914 19.2775ZM23.9914 11.0181L23.4921 10.9914C23.4916 11.0003 23.4914 11.0092 23.4914 11.0181H23.9914ZM23.1626 7.20167C22.979 6.99534 22.663 6.97686 22.4567 7.1604C22.2503 7.34393 22.2319 7.65997 22.4154 7.8663L23.1626 7.20167ZM23.132 7.17022C22.1137 6.20994 20.7588 5.71721 19.3816 5.80584L19.4458 6.80377C20.542 6.73323 21.6263 7.1248 22.4459 7.89775L23.132 7.17022ZM19.4137 5.8048H11.392V6.8048H19.4137V5.8048ZM11.4239 5.80582C10.0387 5.7173 8.68375 6.20958 7.66507 7.17022L8.35115 7.89775C9.17042 7.12515 10.2546 6.73314 11.3601 6.80379L11.4239 5.80582ZM7.63453 7.20167C6.70286 8.24904 6.23007 9.6358 6.31521 11.0482L7.3134 10.988C7.24395 9.83599 7.63001 8.71133 8.3817 7.8663L7.63453 7.20167ZM6.31431 11.0181V19.2775H7.31431V11.0181H6.31431ZM6.31521 19.2474C6.23007 20.6599 6.70286 22.0466 7.63453 23.094L8.3817 22.4294C7.63001 21.5843 7.24395 20.4597 7.3134 19.3076L6.31521 19.2474ZM7.66507 23.1254C8.68375 24.0861 10.0387 24.5784 11.4239 24.4898L11.3601 23.4919C10.2546 23.5625 9.17042 23.1705 8.35115 22.3979L7.66507 23.1254ZM11.392 24.4908H19.4137V23.4908H11.392V24.4908ZM19.3816 24.4898C20.758 24.5784 22.1217 24.0863 23.1406 23.1254L22.4545 22.3979C21.6355 23.1703 20.5429 23.5625 19.4458 23.4919L19.3816 24.4898ZM23.1728 23.0921C24.0928 22.0472 24.5757 20.662 24.4905 19.2474L23.4923 19.3076C23.5616 20.4575 23.1685 21.5838 22.4223 22.4313L23.1728 23.0921ZM24.4914 19.2775V11.0181H23.4914V19.2775H24.4914ZM24.4906 11.0449C24.5662 9.63482 24.0943 8.24909 23.1626 7.20167L22.4154 7.8663C23.167 8.71129 23.5539 9.83698 23.4921 10.9914L24.4906 11.0449Z" fill="url(#paint1_linear_2240_79)" mask="url(#path-3-outside-1_2240_79)"/>
</g>
<g filter="url(#filter2_bd_2240_79)">
<mask id="path-5-inside-2_2240_79" fill="white">
<path d="M20.3065 13.4681L14.5265 19.4371C14.2259 19.7378 13.8308 19.9058 13.4185 19.9058H11.4002C11.2886 19.9058 11.1855 19.8616 11.1082 19.782C11.0309 19.7024 10.9966 19.5963 10.9966 19.4813L11.0481 17.3855C11.0567 16.9699 11.2199 16.5808 11.5033 16.289L15.6 12.0709C15.6687 12.0001 15.789 12.0001 15.8577 12.0709L17.292 13.5388C17.3864 13.6361 17.5239 13.698 17.6699 13.698C17.9876 13.698 18.2367 13.4327 18.2367 13.1144C18.2367 12.9552 18.1766 12.8137 18.0821 12.7076C18.0564 12.6722 16.6908 11.275 16.6908 11.275C16.6049 11.1866 16.6049 11.0363 16.6908 10.9478L17.2662 10.3465C17.7987 9.79824 18.6575 9.79824 19.19 10.3465L20.3065 11.4961C20.8304 12.0355 20.8304 12.9198 20.3065 13.4681Z"/>
</mask>
<path d="M20.3065 13.4681L14.5265 19.4371C14.2259 19.7378 13.8308 19.9058 13.4185 19.9058H11.4002C11.2886 19.9058 11.1855 19.8616 11.1082 19.782C11.0309 19.7024 10.9966 19.5963 10.9966 19.4813L11.0481 17.3855C11.0567 16.9699 11.2199 16.5808 11.5033 16.289L15.6 12.0709C15.6687 12.0001 15.789 12.0001 15.8577 12.0709L17.292 13.5388C17.3864 13.6361 17.5239 13.698 17.6699 13.698C17.9876 13.698 18.2367 13.4327 18.2367 13.1144C18.2367 12.9552 18.1766 12.8137 18.0821 12.7076C18.0564 12.6722 16.6908 11.275 16.6908 11.275C16.6049 11.1866 16.6049 11.0363 16.6908 10.9478L17.2662 10.3465C17.7987 9.79824 18.6575 9.79824 19.19 10.3465L20.3065 11.4961C20.8304 12.0355 20.8304 12.9198 20.3065 13.4681Z" fill="url(#paint2_linear_2240_79)"/>
<path d="M14.5265 19.4371L14.6679 19.5786L14.6701 19.5763L14.5265 19.4371ZM10.9966 19.4813L10.7966 19.4764V19.4813H10.9966ZM11.0481 17.3855L11.2481 17.3905L11.2481 17.3897L11.0481 17.3855ZM11.5033 16.289L11.6468 16.4284L11.5033 16.289ZM15.6 12.0709L15.4566 11.9316L15.6 12.0709ZM15.8577 12.0709L15.7142 12.2102L15.7146 12.2107L15.8577 12.0709ZM17.292 13.5388L17.4354 13.3995L17.435 13.3991L17.292 13.5388ZM18.0821 12.7076L17.9205 12.8253L17.9262 12.8333L17.9327 12.8406L18.0821 12.7076ZM16.6908 11.275L16.5473 11.4144L16.5477 11.4148L16.6908 11.275ZM16.6908 10.9478L16.8342 11.0872L16.8353 11.0861L16.6908 10.9478ZM17.2662 10.3465L17.1227 10.2072L17.1217 10.2082L17.2662 10.3465ZM19.19 10.3465L19.0466 10.4858V10.4858L19.19 10.3465ZM20.3065 11.4961L20.45 11.3568L20.3065 11.4961ZM20.1629 13.329L14.3828 19.298L14.6701 19.5763L20.4502 13.6072L20.1629 13.329ZM14.385 19.2957C14.1203 19.5605 13.7755 19.7058 13.4185 19.7058V20.1058C13.8861 20.1058 14.3314 19.9151 14.6679 19.5785L14.385 19.2957ZM13.4185 19.7058H11.4002V20.1058H13.4185V19.7058ZM11.4002 19.7058C11.3433 19.7058 11.2918 19.6839 11.2517 19.6427L10.9648 19.9213C11.0793 20.0393 11.2339 20.1058 11.4002 20.1058V19.7058ZM11.2517 19.6427C11.2184 19.6084 11.1966 19.5566 11.1966 19.4813H10.7966C10.7966 19.636 10.8434 19.7964 10.9648 19.9213L11.2517 19.6427ZM11.1965 19.4863L11.2481 17.3905L10.8482 17.3806L10.7966 19.4764L11.1965 19.4863ZM11.2481 17.3897C11.2556 17.0243 11.3989 16.6836 11.6468 16.4284L11.3598 16.1497C11.0409 16.4781 10.8578 16.9156 10.8482 17.3814L11.2481 17.3897ZM11.6468 16.4284L15.7435 12.2102L15.4566 11.9316L11.3598 16.1497L11.6468 16.4284ZM15.7435 12.2102C15.7367 12.2173 15.7304 12.2178 15.7289 12.2178C15.7273 12.2178 15.7211 12.2173 15.7142 12.2102L16.0012 11.9316C15.8539 11.7799 15.6038 11.7799 15.4566 11.9316L15.7435 12.2102ZM15.7146 12.2107L17.1489 13.6786L17.435 13.3991L16.0007 11.9311L15.7146 12.2107ZM17.1485 13.6782C17.2796 13.8131 17.4683 13.898 17.6699 13.898V13.498C17.5794 13.498 17.4933 13.4591 17.4354 13.3995L17.1485 13.6782ZM17.6699 13.898C18.1055 13.898 18.4367 13.5356 18.4367 13.1144H18.0367C18.0367 13.3298 17.8698 13.498 17.6699 13.498V13.898ZM18.4367 13.1144C18.4367 12.9035 18.3567 12.7153 18.2315 12.5746L17.9327 12.8406C17.9964 12.9121 18.0367 13.0069 18.0367 13.1144H18.4367ZM18.2438 12.5898C18.2328 12.5747 18.2139 12.555 18.2081 12.5489C18.196 12.5359 18.1795 12.5185 18.1594 12.4976C18.1192 12.4556 18.0634 12.3978 17.9975 12.3297C17.8657 12.1935 17.6924 12.0154 17.52 11.8385C17.3477 11.6615 17.1761 11.4857 17.0477 11.3542C16.9834 11.2884 16.93 11.2337 16.8926 11.1954C16.8739 11.1762 16.8592 11.1612 16.8492 11.1509C16.8442 11.1458 16.8403 11.1419 16.8377 11.1392C16.8364 11.1379 16.8355 11.1369 16.8348 11.1362C16.8345 11.1359 16.8342 11.1357 16.8341 11.1355C16.834 11.1354 16.8339 11.1353 16.8339 11.1353C16.8338 11.1353 16.8338 11.1353 16.8338 11.1352C16.8338 11.1352 16.8338 11.1352 16.6908 11.275C16.5477 11.4148 16.5477 11.4148 16.5478 11.4148C16.5478 11.4148 16.5478 11.4149 16.5478 11.4149C16.5478 11.4149 16.5479 11.415 16.548 11.4151C16.5482 11.4152 16.5484 11.4155 16.5487 11.4158C16.5494 11.4165 16.5504 11.4175 16.5517 11.4188C16.5542 11.4215 16.5581 11.4254 16.5631 11.4305C16.5731 11.4407 16.5878 11.4558 16.6064 11.4749C16.6438 11.5131 16.6972 11.5678 16.7614 11.6336C16.8898 11.7651 17.0613 11.9408 17.2335 12.1176C17.4058 12.2944 17.5787 12.4722 17.7102 12.608C17.7759 12.6759 17.8311 12.733 17.8704 12.7742C17.8902 12.7948 17.9056 12.811 17.9163 12.8225C17.9335 12.8407 17.9282 12.836 17.9205 12.8253L18.2438 12.5898ZM16.8342 11.1357C16.8311 11.1325 16.8264 11.1244 16.8264 11.1114C16.8264 11.0984 16.8311 11.0904 16.8342 11.0872L16.5473 10.8085C16.386 10.9745 16.386 11.2483 16.5473 11.4144L16.8342 11.1357ZM16.8353 11.0861L17.4107 10.4848L17.1217 10.2082L16.5463 10.8096L16.8353 11.0861ZM17.4097 10.4858C17.8636 10.0185 18.5926 10.0185 19.0466 10.4858L19.3335 10.2072C18.7225 9.57802 17.7338 9.57802 17.1227 10.2072L17.4097 10.4858ZM19.0466 10.4858L20.1631 11.6354L20.45 11.3568L19.3335 10.2072L19.0466 10.4858ZM20.1631 11.6354C20.611 12.0966 20.6126 12.8583 20.1619 13.3299L20.4511 13.6063C21.0483 12.9813 21.0499 11.9744 20.45 11.3568L20.1631 11.6354Z" fill="url(#paint3_linear_2240_79)" fill-opacity="0.5" mask="url(#path-5-inside-2_2240_79)"/>
</g>
<defs>
<filter id="filter0_f_2240_79" x="0.179688" y="0.366943" width="21.438" height="21.5405" filterUnits="userSpaceOnUse" color-interpolation-filters="sRGB">
<feFlood flood-opacity="0" result="BackgroundImageFix"/>
<feBlend mode="normal" in="SourceGraphic" in2="BackgroundImageFix" result="shape"/>
<feGaussianBlur stdDeviation="2" result="effect1_foregroundBlur_2240_79"/>
</filter>
<filter id="filter1_b_2240_79" x="2.30542" y="1.79565" width="26.1946" height="26.7043" filterUnits="userSpaceOnUse" color-interpolation-filters="sRGB">
<feFlood flood-opacity="0" result="BackgroundImageFix"/>
<feGaussianBlur in="BackgroundImageFix" stdDeviation="2"/>
<feComposite in2="SourceAlpha" operator="in" result="effect1_backgroundBlur_2240_79"/>
<feBlend mode="normal" in="SourceGraphic" in2="effect1_backgroundBlur_2240_79" result="shape"/>
</filter>
<filter id="filter2_bd_2240_79" x="6.99658" y="5.9353" width="19.7029" height="19.9705" filterUnits="userSpaceOnUse" color-interpolation-filters="sRGB">
<feFlood flood-opacity="0" result="BackgroundImageFix"/>
<feGaussianBlur in="BackgroundImageFix" stdDeviation="2"/>
<feComposite in2="SourceAlpha" operator="in" result="effect1_backgroundBlur_2240_79"/>
<feColorMatrix in="SourceAlpha" type="matrix" values="0 0 0 0 0 0 0 0 0 0 0 0 0 0 0 0 0 0 127 0" result="hardAlpha"/>
<feOffset dx="2" dy="2"/>
<feGaussianBlur stdDeviation="2"/>
<feColorMatrix type="matrix" values="0 0 0 0 0.369983 0 0 0 0 0.879167 0 0 0 0 0.669503 0 0 0 0.5 0"/>
<feBlend mode="normal" in2="effect1_backgroundBlur_2240_79" result="effect2_dropShadow_2240_79"/>
<feBlend mode="normal" in="SourceGraphic" in2="effect2_dropShadow_2240_79" result="shape"/>
</filter>
<linearGradient id="paint0_linear_2240_79" x1="16.4004" y1="1.09264" x2="8.64454" y2="16.8629" gradientUnits="userSpaceOnUse">
<stop stop-color="#57FFBA"/>
<stop offset="1" stop-color="#2CE398"/>
</linearGradient>
<linearGradient id="paint1_linear_2240_79" x1="9.54253" y1="8.35823" x2="20.9011" y2="22.0211" gradientUnits="userSpaceOnUse">
<stop stop-color="white" stop-opacity="0.5"/>
<stop offset="1" stop-color="white" stop-opacity="0"/>
</linearGradient>
<linearGradient id="paint2_linear_2240_79" x1="20.0115" y1="11.7358" x2="9.20284" y2="12.0787" gradientUnits="userSpaceOnUse">
<stop stop-color="white"/>
<stop offset="1" stop-color="white" stop-opacity="0.2"/>
</linearGradient>
<linearGradient id="paint3_linear_2240_79" x1="12.0418" y1="13.2799" x2="20.2809" y2="13.3242" gradientUnits="userSpaceOnUse">
<stop stop-color="white"/>
<stop offset="1" stop-color="white" stop-opacity="0"/>
</linearGradient>
</defs>
</svg>
