<svg width="32" height="32" viewBox="0 0 32 32" fill="none" xmlns="http://www.w3.org/2000/svg">
<path fill-rule="evenodd" clip-rule="evenodd" d="M14.1067 2.55285C13.4018 2.55285 12.8303 3.12433 12.8303 3.82928V8.37335C12.8303 10.4882 11.1158 12.2026 9.001 12.2026H4.32928C3.62433 12.2026 3.05285 12.7741 3.05285 13.4791V16.7722C3.05285 17.4772 3.62433 18.0487 4.32928 18.0487H8.23514C8.94009 18.0487 9.51157 18.6201 9.51157 19.3251C9.51157 20.03 8.94009 20.6015 8.23514 20.6015H4.32928C2.21443 20.6015 0.5 18.8871 0.5 16.7722V13.4791C0.5 11.3642 2.21443 9.64978 4.32928 9.64978H9.001C9.70595 9.64978 10.2774 9.07831 10.2774 8.37335V3.82928C10.2774 1.71443 11.9918 0 14.1067 0H17.4765C19.5913 0 21.3057 1.71443 21.3057 3.82928V16.7722C21.3057 18.8871 19.5913 20.6015 17.4765 20.6015H16.3787C15.6738 20.6015 15.1023 20.03 15.1023 19.3251C15.1023 18.6201 15.6738 18.0487 16.3787 18.0487H17.4765C18.1814 18.0487 18.7529 17.4772 18.7529 16.7722V3.82928C18.7529 3.12433 18.1814 2.55285 17.4765 2.55285H14.1067ZM14.9747 13.9513C14.2697 13.9513 13.6982 14.5228 13.6982 15.2278V28.1707C13.6982 28.8757 14.2697 29.4471 14.9747 29.4471H18.3444C19.0494 29.4471 19.6209 28.8757 19.6209 28.1707V23.6266C19.6209 21.5118 21.3353 19.7974 23.4501 19.7974H28.1219C28.8268 19.7974 29.3983 19.2259 29.3983 18.5209V15.2278C29.3983 14.5228 28.8268 13.9513 28.1219 13.9513H24.216C23.511 13.9513 22.9396 13.3799 22.9396 12.6749C22.9396 11.97 23.511 11.3985 24.216 11.3985H28.1219C30.2367 11.3985 31.9511 13.1129 31.9511 15.2278V18.5209C31.9511 20.6358 30.2367 22.3502 28.1219 22.3502H23.4501C22.7452 22.3502 22.1737 22.9217 22.1737 23.6266V28.1707C22.1737 30.2856 20.4593 32 18.3444 32H14.9747C12.8598 32 11.1454 30.2856 11.1454 28.1707V15.2278C11.1454 13.1129 12.8598 11.3985 14.9747 11.3985H16.3787C17.0837 11.3985 17.6552 11.97 17.6552 12.6749C17.6552 13.3799 17.0837 13.9513 16.3787 13.9513H14.9747Z" fill="black"/>
</svg>
