<svg width="28" height="29" viewBox="0 0 28 29" fill="none" xmlns="http://www.w3.org/2000/svg">
<path d="M9.1235 2.34351L2.9385 4.76748C0.520138 5.71526 -0.438821 8.0451 0.554083 10.5624L2.84562 16.372C3.83571 18.8821 6.12977 19.9371 8.54812 18.9893L14.7331 16.5653C17.1515 15.6175 18.1033 13.2905 17.1132 10.7803L14.8217 4.97073C13.8288 2.45347 11.5419 1.39572 9.1235 2.34351Z" fill="url(#paint0_linear_2240_1593)"/>
<g opacity="0.5" filter="url(#filter0_f_2240_1593)">
<path d="M15.7753 10.8954L14.2301 6.84538C13.6696 5.37633 12.3767 4.9118 10.7205 5.58142L5.1113 7.84938C3.42799 8.52998 2.80949 9.76734 3.36997 11.2364L4.91516 15.2864C5.48468 16.7792 6.74662 17.2283 8.42994 16.5477L14.0392 14.2798C15.6953 13.6101 16.3448 12.3881 15.7753 10.8954Z" fill="#FF624D"/>
</g>
<g filter="url(#filter1_b_2240_1593)">
<path d="M21.9693 13.1165L21.8627 12.9049C21.5747 12.3566 21.244 11.7218 21.0413 11.3563C20.5507 10.4906 19.708 10.0096 18.6733 10H13.6493C12.6147 10.0096 11.7827 10.4906 11.292 11.3563C11.0787 11.741 10.716 12.4336 10.4173 13.0011L10.3533 13.1165C10.3213 13.1935 10.236 13.232 10.1507 13.232C7.58 13.232 5.5 15.1173 5.5 17.4258V23.1395C5.5 25.448 7.58 27.3333 10.1507 27.3333H22.1827C24.7427 27.3333 26.8333 25.448 26.8333 23.1395V17.4258C26.8333 15.1173 24.7427 13.232 22.1827 13.232C22.0867 13.232 22.012 13.1839 21.9693 13.1165Z" fill="#FFAC95" fill-opacity="0.4"/>
<path d="M22.0859 12.7924L22.0859 12.7924L22.084 12.7887C22.035 12.6954 21.9847 12.5995 21.9339 12.5027C21.6873 12.0324 21.4295 11.5409 21.26 11.235L21.26 11.235L21.2588 11.233C20.7218 10.2856 19.7947 9.76041 18.6757 9.75001V9.75H18.6733L13.6493 9.74999L13.647 9.75001C12.5269 9.76042 11.611 10.2865 11.0745 11.233L11.0745 11.233L11.0734 11.235C10.8848 11.5751 10.5814 12.152 10.3089 12.6703C10.271 12.7424 10.2337 12.8133 10.1974 12.8823L10.1421 12.982C7.46176 12.9862 5.25 14.9585 5.25 17.4258V23.1395C5.25 25.6094 7.46648 27.5833 10.1507 27.5833H22.1827C24.8558 27.5833 27.0833 25.6098 27.0833 23.1395V17.4258C27.0833 14.9555 24.8558 12.982 22.1827 12.982C22.1822 12.982 22.1818 12.982 22.1815 12.9819L22.0859 12.7924Z" stroke="url(#paint1_linear_2240_1593)" stroke-width="0.5" stroke-linecap="round" stroke-linejoin="round"/>
</g>
<g filter="url(#filter2_bd_2240_1593)">
<mask id="path-5-inside-1_2240_1593" fill="white">
<path fill-rule="evenodd" clip-rule="evenodd" d="M19.5423 15.4332C19.6898 15.9355 20.1985 16.2226 20.687 16.0792C21.1754 15.9358 21.458 15.4164 21.3106 14.9141C21.1631 14.4118 20.6416 14.1175 20.1532 14.2609C19.6647 14.4043 19.3949 14.9309 19.5423 15.4332ZM19.4284 22.057C18.9442 22.9739 18.1166 23.697 17.0615 24.0067C16.0358 24.3079 14.9575 24.1771 14.0065 23.6488C13.0624 23.1076 12.3729 22.2407 12.0632 21.1859C11.7467 20.144 11.8582 19.042 12.36 18.0763C12.8715 17.1078 13.7177 16.412 14.7435 16.1108C15.7692 15.8097 16.8573 15.9376 17.7984 16.4688C18.7426 17.01 19.4351 17.8869 19.7418 18.9316C20.0535 20.0295 19.9127 21.1402 19.4284 22.057ZM15.1859 17.6178C14.5509 17.8042 14.0287 18.2303 13.7081 18.8372C13.3944 19.4313 13.3301 20.1158 13.5256 20.7458L13.5286 20.7558C13.7203 21.4088 14.1444 21.9499 14.7295 22.28C15.3145 22.6102 15.9842 22.6864 16.6192 22.5C17.9282 22.1157 18.6619 20.7109 18.2764 19.362C18.0847 18.709 17.6606 18.1679 17.0756 17.8377C16.4905 17.5076 15.8209 17.4314 15.1859 17.6178Z"/>
</mask>
<path fill-rule="evenodd" clip-rule="evenodd" d="M19.5423 15.4332C19.6898 15.9355 20.1985 16.2226 20.687 16.0792C21.1754 15.9358 21.458 15.4164 21.3106 14.9141C21.1631 14.4118 20.6416 14.1175 20.1532 14.2609C19.6647 14.4043 19.3949 14.9309 19.5423 15.4332ZM19.4284 22.057C18.9442 22.9739 18.1166 23.697 17.0615 24.0067C16.0358 24.3079 14.9575 24.1771 14.0065 23.6488C13.0624 23.1076 12.3729 22.2407 12.0632 21.1859C11.7467 20.144 11.8582 19.042 12.36 18.0763C12.8715 17.1078 13.7177 16.412 14.7435 16.1108C15.7692 15.8097 16.8573 15.9376 17.7984 16.4688C18.7426 17.01 19.4351 17.8869 19.7418 18.9316C20.0535 20.0295 19.9127 21.1402 19.4284 22.057ZM15.1859 17.6178C14.5509 17.8042 14.0287 18.2303 13.7081 18.8372C13.3944 19.4313 13.3301 20.1158 13.5256 20.7458L13.5286 20.7558C13.7203 21.4088 14.1444 21.9499 14.7295 22.28C15.3145 22.6102 15.9842 22.6864 16.6192 22.5C17.9282 22.1157 18.6619 20.7109 18.2764 19.362C18.0847 18.709 17.6606 18.1679 17.0756 17.8377C16.4905 17.5076 15.8209 17.4314 15.1859 17.6178Z" fill="url(#paint2_linear_2240_1593)"/>
<path d="M20.687 16.0792L20.6306 15.8873L20.6306 15.8873L20.687 16.0792ZM19.4284 22.057L19.6053 22.1504L19.4284 22.057ZM14.0065 23.6488L13.9071 23.8223L13.9094 23.8236L14.0065 23.6488ZM12.0632 21.1859L12.2551 21.1296L12.2546 21.1278L12.0632 21.1859ZM12.36 18.0763L12.1831 17.9829L12.1825 17.9841L12.36 18.0763ZM14.7435 16.1108L14.6871 15.9189L14.7435 16.1108ZM17.7984 16.4688L17.8979 16.2952L17.8967 16.2946L17.7984 16.4688ZM19.7418 18.9316L19.9342 18.877L19.9337 18.8753L19.7418 18.9316ZM13.7081 18.8372L13.885 18.9306L13.7081 18.8372ZM13.5256 20.7458L13.7176 20.6894L13.7167 20.6865L13.5256 20.7458ZM13.5286 20.7558L13.7205 20.6995L13.5286 20.7558ZM14.7295 22.28L14.8278 22.1059L14.8278 22.1059L14.7295 22.28ZM18.2764 19.362L18.4687 19.307L18.4683 19.3056L18.2764 19.362ZM17.0756 17.8377L16.9773 18.0119L17.0756 17.8377ZM20.6306 15.8873C20.2532 15.9981 19.8521 15.7783 19.7342 15.3769L19.3504 15.4896C19.5275 16.0927 20.1439 16.4471 20.7433 16.2711L20.6306 15.8873ZM21.1186 14.9704C21.2357 15.369 21.0108 15.7757 20.6306 15.8873L20.7433 16.2711C21.34 16.0959 21.6804 15.4637 21.5025 14.8578L21.1186 14.9704ZM20.2095 14.4528C20.587 14.342 21.0008 14.5691 21.1186 14.9704L21.5025 14.8578C21.3254 14.2546 20.6963 13.893 20.0968 14.069L20.2095 14.4528ZM19.7342 15.3769C19.6156 14.9727 19.8348 14.5629 20.2095 14.4528L20.0968 14.069C19.4947 14.2458 19.1742 14.8892 19.3504 15.4896L19.7342 15.3769ZM17.1179 24.1986C18.2279 23.8727 19.0974 23.1121 19.6053 22.1504L19.2516 21.9636C18.791 22.8357 18.0053 23.5212 17.0052 23.8148L17.1179 24.1986ZM13.9094 23.8236C14.9054 24.3769 16.0388 24.5154 17.1179 24.1986L17.0052 23.8148C16.0327 24.1003 15.0096 23.9772 14.1037 23.474L13.9094 23.8236ZM11.8713 21.2423C12.1956 22.3469 12.9185 23.2556 13.9071 23.8223L14.106 23.4753C13.2064 22.9596 12.5501 22.1345 12.2551 21.1296L11.8713 21.2423ZM12.1825 17.9841C11.6573 18.995 11.5398 20.1509 11.8718 21.244L12.2546 21.1278C11.9536 20.1371 12.0592 19.089 12.5374 18.1685L12.1825 17.9841ZM14.6871 15.9189C13.6084 16.2356 12.7193 16.9676 12.1831 17.9829L12.5368 18.1697C13.0236 17.2479 13.8269 16.5883 14.7998 16.3027L14.6871 15.9189ZM17.8967 16.2946C16.9092 15.7373 15.7654 15.6024 14.6871 15.9189L14.7998 16.3027C15.773 16.017 16.8054 16.138 17.7001 16.6429L17.8967 16.2946ZM19.9337 18.8753C19.6124 17.781 18.8867 16.8621 17.8979 16.2952L17.699 16.6423C18.5984 17.1578 19.2577 17.9928 19.5499 18.988L19.9337 18.8753ZM19.6053 22.1504C20.1132 21.1886 20.2601 20.025 19.9342 18.877L19.5494 18.9863C19.8469 20.034 19.7121 21.0917 19.2516 21.9636L19.6053 22.1504ZM13.885 18.9306C14.1807 18.3706 14.6599 17.9806 15.2422 17.8097L15.1295 17.4259C14.4418 17.6278 13.8766 18.09 13.5313 18.7438L13.885 18.9306ZM13.7167 20.6865C13.5371 20.1079 13.5957 19.4783 13.885 18.9306L13.5313 18.7438C13.1931 19.3842 13.1231 20.1236 13.3346 20.8051L13.7167 20.6865ZM13.7205 20.6995L13.7176 20.6894L13.3337 20.8021L13.3367 20.8122L13.7205 20.6995ZM14.8278 22.1059C14.2892 21.8019 13.8979 21.3038 13.7205 20.6995L13.3367 20.8122C13.5427 21.5138 13.9996 22.0978 14.6312 22.4542L14.8278 22.1059ZM16.5628 22.3081C15.98 22.4792 15.3661 22.4096 14.8278 22.1059L14.6312 22.4542C15.263 22.8108 15.9884 22.8936 16.6755 22.6919L16.5628 22.3081ZM18.0841 19.4169C18.4413 20.6672 17.7597 21.9567 16.5628 22.3081L16.6755 22.6919C18.0968 22.2746 18.8824 20.7547 18.4687 19.307L18.0841 19.4169ZM16.9773 18.0119C17.5158 18.3158 17.9071 18.814 18.0845 19.4183L18.4683 19.3056C18.2623 18.604 17.8054 18.02 17.1738 17.6636L16.9773 18.0119ZM15.2422 17.8097C15.8251 17.6386 16.439 17.7081 16.9773 18.0119L17.1738 17.6636C16.542 17.307 15.8166 17.2242 15.1295 17.4259L15.2422 17.8097Z" fill="url(#paint3_linear_2240_1593)" fill-opacity="0.5" mask="url(#path-5-inside-1_2240_1593)"/>
</g>
<path d="M17.5 2.09508C17.5 1.71619 17.6536 1.35283 17.9271 1.08492C18.2006 0.817014 18.5716 0.666504 18.9583 0.666504H19.5417C19.619 0.666504 19.6932 0.696606 19.7479 0.750188C19.8026 0.80377 19.8333 0.876442 19.8333 0.952218C19.8333 1.02799 19.8026 1.10067 19.7479 1.15425C19.6932 1.20783 19.619 1.23793 19.5417 1.23793H18.9583C18.7263 1.23793 18.5037 1.32824 18.3396 1.48898C18.1755 1.64973 18.0833 1.86775 18.0833 2.09508V2.6665C18.0833 2.74228 18.0526 2.81495 17.9979 2.86853C17.9432 2.92212 17.869 2.95222 17.7917 2.95222C17.7143 2.95222 17.6401 2.92212 17.5854 2.86853C17.5307 2.81495 17.5 2.74228 17.5 2.6665V2.09508ZM24.5 0.952218C24.5 0.876442 24.5307 0.80377 24.5854 0.750188C24.6401 0.696606 24.7143 0.666504 24.7917 0.666504H25.375C25.7618 0.666504 26.1327 0.817014 26.4062 1.08492C26.6797 1.35283 26.8333 1.71619 26.8333 2.09508V2.6665C26.8333 2.74228 26.8026 2.81495 26.7479 2.86853C26.6932 2.92212 26.619 2.95222 26.5417 2.95222C26.4643 2.95222 26.3901 2.92212 26.3354 2.86853C26.2807 2.81495 26.25 2.74228 26.25 2.6665V2.09508C26.25 1.86775 26.1578 1.64973 25.9937 1.48898C25.8296 1.32824 25.6071 1.23793 25.375 1.23793H24.7917C24.7143 1.23793 24.6401 1.20783 24.5854 1.15425C24.5307 1.10067 24.5 1.02799 24.5 0.952218ZM17.7917 6.38079C17.869 6.38079 17.9432 6.41089 17.9979 6.46447C18.0526 6.51806 18.0833 6.59073 18.0833 6.6665V7.23793C18.0833 7.46526 18.1755 7.68328 18.3396 7.84402C18.5037 8.00477 18.7263 8.09508 18.9583 8.09508H19.5417C19.619 8.09508 19.6932 8.12518 19.7479 8.17876C19.8026 8.23234 19.8333 8.30501 19.8333 8.38079C19.8333 8.45657 19.8026 8.52924 19.7479 8.58282C19.6932 8.6364 19.619 8.6665 19.5417 8.6665H18.9583C18.5716 8.6665 18.2006 8.51599 17.9271 8.24809C17.6536 7.98018 17.5 7.61681 17.5 7.23793V6.6665C17.5 6.59073 17.5307 6.51806 17.5854 6.46447C17.6401 6.41089 17.7143 6.38079 17.7917 6.38079ZM26.5417 6.38079C26.619 6.38079 26.6932 6.41089 26.7479 6.46447C26.8026 6.51806 26.8333 6.59073 26.8333 6.6665V7.23793C26.8333 7.61681 26.6797 7.98018 26.4062 8.24809C26.1327 8.51599 25.7618 8.6665 25.375 8.6665H24.7917C24.7143 8.6665 24.6401 8.6364 24.5854 8.58282C24.5307 8.52924 24.5 8.45657 24.5 8.38079C24.5 8.30501 24.5307 8.23234 24.5854 8.17876C24.6401 8.12518 24.7143 8.09508 24.7917 8.09508H25.375C25.6071 8.09508 25.8296 8.00477 25.9937 7.84402C26.1578 7.68328 26.25 7.46526 26.25 7.23793V6.6665C26.25 6.59073 26.2807 6.51806 26.3354 6.46447C26.3901 6.41089 26.4643 6.38079 26.5417 6.38079ZM19.5417 2.38079C19.619 2.38079 19.6932 2.41089 19.7479 2.46447C19.8026 2.51806 19.8333 2.59073 19.8333 2.6665V6.6665C19.8333 6.74228 19.8026 6.81495 19.7479 6.86854C19.6932 6.92212 19.619 6.95222 19.5417 6.95222C19.4643 6.95222 19.3901 6.92212 19.3354 6.86854C19.2807 6.81495 19.25 6.74228 19.25 6.6665V2.6665C19.25 2.59073 19.2807 2.51806 19.3354 2.46447C19.3901 2.41089 19.4643 2.38079 19.5417 2.38079ZM21.5833 2.6665C21.5833 2.59073 21.5526 2.51806 21.4979 2.46447C21.4432 2.41089 21.369 2.38079 21.2917 2.38079C21.2143 2.38079 21.1401 2.41089 21.0854 2.46447C21.0307 2.51806 21 2.59073 21 2.6665V6.6665C21 6.74228 21.0307 6.81495 21.0854 6.86854C21.1401 6.92212 21.2143 6.95222 21.2917 6.95222C21.369 6.95222 21.4432 6.92212 21.4979 6.86854C21.5526 6.81495 21.5833 6.74228 21.5833 6.6665V2.6665ZM23.0417 2.38079C23.119 2.38079 23.1932 2.41089 23.2479 2.46447C23.3026 2.51806 23.3333 2.59073 23.3333 2.6665V6.6665C23.3333 6.74228 23.3026 6.81495 23.2479 6.86854C23.1932 6.92212 23.119 6.95222 23.0417 6.95222C22.9643 6.95222 22.8901 6.92212 22.8354 6.86854C22.7807 6.81495 22.75 6.74228 22.75 6.6665V2.6665C22.75 2.59073 22.7807 2.51806 22.8354 2.46447C22.8901 2.41089 22.9643 2.38079 23.0417 2.38079ZM25.0833 2.6665C25.0833 2.59073 25.0526 2.51806 24.9979 2.46447C24.9432 2.41089 24.869 2.38079 24.7917 2.38079C24.7143 2.38079 24.6401 2.41089 24.5854 2.46447C24.5307 2.51806 24.5 2.59073 24.5 2.6665V6.6665C24.5 6.74228 24.5307 6.81495 24.5854 6.86854C24.6401 6.92212 24.7143 6.95222 24.7917 6.95222C24.869 6.95222 24.9432 6.92212 24.9979 6.86854C25.0526 6.81495 25.0833 6.74228 25.0833 6.6665V2.6665Z" fill="url(#paint4_linear_2240_1593)"/>
<defs>
<filter id="filter0_f_2240_1593" x="0.168457" y="2.28125" width="18.8091" height="17.5762" filterUnits="userSpaceOnUse" color-interpolation-filters="sRGB">
<feFlood flood-opacity="0" result="BackgroundImageFix"/>
<feBlend mode="normal" in="SourceGraphic" in2="BackgroundImageFix" result="shape"/>
<feGaussianBlur stdDeviation="1.5" result="effect1_foregroundBlur_2240_1593"/>
</filter>
<filter id="filter1_b_2240_1593" x="2" y="6.5" width="28.3333" height="24.3335" filterUnits="userSpaceOnUse" color-interpolation-filters="sRGB">
<feFlood flood-opacity="0" result="BackgroundImageFix"/>
<feGaussianBlur in="BackgroundImageFix" stdDeviation="1.5"/>
<feComposite in2="SourceAlpha" operator="in" result="effect1_backgroundBlur_2240_1593"/>
<feBlend mode="normal" in="SourceGraphic" in2="effect1_backgroundBlur_2240_1593" result="shape"/>
</filter>
<filter id="filter2_bd_2240_1593" x="8.88574" y="11.2246" width="16.4639" height="16.9409" filterUnits="userSpaceOnUse" color-interpolation-filters="sRGB">
<feFlood flood-opacity="0" result="BackgroundImageFix"/>
<feGaussianBlur in="BackgroundImageFix" stdDeviation="1.5"/>
<feComposite in2="SourceAlpha" operator="in" result="effect1_backgroundBlur_2240_1593"/>
<feColorMatrix in="SourceAlpha" type="matrix" values="0 0 0 0 0 0 0 0 0 0 0 0 0 0 0 0 0 0 127 0" result="hardAlpha"/>
<feOffset dx="1" dy="1"/>
<feGaussianBlur stdDeviation="1.5"/>
<feColorMatrix type="matrix" values="0 0 0 0 1 0 0 0 0 0.447059 0 0 0 0 0.368627 0 0 0 0.5 0"/>
<feBlend mode="normal" in2="effect1_backgroundBlur_2240_1593" result="effect2_dropShadow_2240_1593"/>
<feBlend mode="normal" in="SourceGraphic" in2="effect2_dropShadow_2240_1593" result="shape"/>
</filter>
<linearGradient id="paint0_linear_2240_1593" x1="10.2583" y1="11.2086" x2="0.153414" y2="22.2304" gradientUnits="userSpaceOnUse">
<stop stop-color="#FFA78F"/>
<stop offset="1" stop-color="#F23E2C"/>
</linearGradient>
<linearGradient id="paint1_linear_2240_1593" x1="8.8808" y1="12.0344" x2="23.8872" y2="29.7995" gradientUnits="userSpaceOnUse">
<stop stop-color="white" stop-opacity="0.6"/>
<stop offset="1" stop-color="white" stop-opacity="0.15"/>
</linearGradient>
<linearGradient id="paint2_linear_2240_1593" x1="20.7498" y1="15.6818" x2="9.52139" y2="19.4832" gradientUnits="userSpaceOnUse">
<stop stop-color="white"/>
<stop offset="1" stop-color="white" stop-opacity="0.2"/>
</linearGradient>
<linearGradient id="paint3_linear_2240_1593" x1="21.8497" y1="18.369" x2="12.0864" y2="21.7982" gradientUnits="userSpaceOnUse">
<stop stop-color="white"/>
<stop offset="1" stop-color="white" stop-opacity="0"/>
</linearGradient>
<linearGradient id="paint4_linear_2240_1593" x1="24.9667" y1="3.6665" x2="10.8008" y2="8.1877" gradientUnits="userSpaceOnUse">
<stop stop-color="#FFA78F"/>
<stop offset="1" stop-color="#F23E2C"/>
</linearGradient>
</defs>
</svg>
